<?xml version="1.0" encoding="utf-8"?>
<!-- Generator: Adobe Illustrator 22.1.0, SVG Export Plug-In . SVG Version: 6.00 Build 0)  -->
<svg version="1.1" id="Layer_1" xmlns="http://www.w3.org/2000/svg" xmlns:xlink="http://www.w3.org/1999/xlink" x="0px" y="0px"
	 viewBox="0 0 1831.2 623.6" style="enable-background:new 0 0 1831.2 623.6;" xml:space="preserve">
<style type="text/css">
	.st0{fill-rule:evenodd;clip-rule:evenodd;fill:#1C1E21;}
	.st1{fill:#FFFFFF;}
	.st2{fill:#231916;}
	.st3{fill:url(#XMLID_6_);}
	.st4{fill:url(#XMLID_7_);}
</style>
<g>
	<path class="st0" d="M658.2,336v95.8c0,1-0.3,2-0.8,2.8c-0.6,0.8-1.5,1.4-2.8,1.9c-1.3,0.5-3.1,0.9-5.4,1.2c-2.3,0.3-5,0.5-8.2,0.5
		c-3.3,0-6.1-0.2-8.4-0.5c-2.2-0.3-4-0.7-5.4-1.2c-1.4-0.5-2.4-1.1-2.9-1.9c-0.6-0.8-0.8-1.8-0.8-2.8V336l-73.4-146.5
		c-1.5-3.1-2.4-5.5-2.8-7.2c-0.3-1.8,0-3.1,1-4c1-1,2.8-1.5,5.4-1.8c2.6-0.3,6.1-0.4,10.6-0.4c4,0,7.2,0.1,9.7,0.4
		c2.5,0.3,4.5,0.6,5.9,1.1c1.5,0.5,2.6,1.1,3.3,2c0.7,0.9,1.4,2,2.1,3.3l35.9,74.7c3.4,7.1,6.7,14.5,10,22.3
		c3.4,7.7,6.8,15.6,10.2,23.5h0.4c3.1-7.7,6.2-15.2,9.5-22.8c3.3-7.6,6.6-15,9.9-22.4l36.2-75.1c0.4-1.3,1-2.5,1.7-3.4
		c0.8-1,1.8-1.7,3-2.1c1.3-0.5,3-0.8,5.3-1.1c2.3-0.3,5.1-0.4,8.6-0.4c4.8,0,8.6,0.1,11.3,0.5c2.8,0.3,4.7,0.9,5.7,1.9
		c1.1,0.9,1.4,2.3,1.1,4c-0.3,1.7-1.2,4.1-2.7,7L658.2,336z M1685,306.5c0-14.7-1.3-28.4-3.9-41c-2.6-12.7-6.9-23.6-13.1-32.9
		c-6.1-9.3-14.2-16.5-24.4-21.8c-10.1-5.3-22.7-7.8-37.7-7.8c-15,0-27.6,2.8-37.7,8.4c-10.2,5.6-18.4,13.1-24.8,22.5
		c-6.4,9.4-10.9,20.3-13.6,32.9c-2.7,12.5-4.1,25.6-4.1,39.4c0,15.3,1.2,29.3,3.8,42.2c2.6,12.9,6.8,23.9,12.9,33.2
		c6,9.3,14.1,16.5,24.2,21.7c10.1,5.2,22.8,7.7,38,7.7c15.1,0,27.8-2.8,38.2-8.4c10.3-5.6,18.6-13.2,24.9-22.8
		c6.3-9.6,10.7-20.6,13.4-33.2C1683.7,333.8,1685,320.5,1685,306.5z M1721.3,304c0,21-2.5,40-7.5,56.8
		c-4.9,16.9-12.3,31.2-22.1,43.1c-9.8,11.8-22.2,20.9-37.1,27.3c-14.9,6.3-32.2,9.5-52,9.5c-19.5,0-36.4-2.9-50.7-8.7
		c-14.2-5.8-26-14.3-35.3-25.4c-9.3-11.1-16.2-24.9-20.8-41.4c-4.6-16.5-6.8-35.4-6.8-56.8c0-20.5,2.5-39.1,7.4-55.8
		c5-16.7,12.4-31,22.3-42.7c9.9-11.7,22.3-20.7,37.1-27.1c14.9-6.4,32.2-9.5,52-9.5c19.1,0,35.8,2.9,50,8.6
		c14.2,5.8,26,14.2,35.4,25.2c9.4,11.1,16.4,24.7,21.1,41C1719,264.4,1721.3,283.1,1721.3,304z M1435.3,371.5
		c0,10.3-0.9,19.7-2.8,28.3c-1.8,8.5-5.1,15.8-9.6,21.9c-4.6,6-10.5,10.7-18,14c-7.4,3.3-16.6,4.9-27.6,4.9c-3.7,0-7.4-0.3-11.1-0.9
		c-3.7-0.6-7.1-1.4-10.1-2.4c-3.1-1-5.8-2.1-8-3.2c-2.3-1.1-3.8-2.1-4.5-2.9c-0.7-0.8-1.3-1.6-1.8-2.4c-0.5-0.8-0.9-1.8-1.2-2.9
		c-0.3-1.1-0.6-2.5-0.7-4.2c-0.1-1.7-0.2-3.7-0.2-6.1c0-2.9,0.1-5.4,0.3-7.3c0.2-1.9,0.6-3.5,1.1-4.6c0.5-1.1,1.2-1.9,1.9-2.4
		c0.8-0.5,1.7-0.7,2.7-0.7c1.1,0,2.5,0.5,4.1,1.5c1.7,1,3.7,2.1,6,3.3c2.4,1.2,5.1,2.3,8.1,3.3c3.1,1,6.7,1.5,10.8,1.5
		c4.6,0,8.4-0.6,11.6-1.7c3.2-1.1,5.9-3.2,8-6.3c2.1-3.1,3.7-7.3,4.8-12.7c1.1-5.4,1.6-12.5,1.6-21.2V182.2c0-0.9,0.3-1.8,0.8-2.6
		c0.6-0.8,1.5-1.5,2.8-2c1.3-0.6,3.1-1,5.3-1.2c2.2-0.3,5-0.4,8.3-0.4c3.2,0,6,0.1,8.2,0.4c2.3,0.3,4,0.7,5.3,1.2
		c1.3,0.5,2.2,1.2,2.8,2c0.6,0.8,0.9,1.7,0.9,2.6V371.5z M1287.1,306.5c0-14.7-1.3-28.4-3.9-41c-2.6-12.7-6.9-23.6-13.1-32.9
		c-6.1-9.3-14.2-16.5-24.4-21.8c-10.1-5.3-22.7-7.8-37.7-7.8c-15,0-27.6,2.8-37.7,8.4c-10.2,5.6-18.4,13.1-24.8,22.5
		c-6.4,9.4-10.9,20.3-13.6,32.9c-2.7,12.5-4.1,25.6-4.1,39.4c0,15.3,1.2,29.3,3.8,42.2c2.6,12.9,6.8,23.9,12.9,33.2
		c6,9.3,14.1,16.5,24.2,21.7c10.1,5.2,22.8,7.7,38,7.7c15.1,0,27.8-2.8,38.2-8.4c10.3-5.6,18.6-13.2,24.9-22.8
		c6.3-9.6,10.7-20.6,13.4-33.2C1285.8,333.8,1287.1,320.5,1287.1,306.5z M1323.5,304c0,21-2.5,40-7.5,56.8
		c-4.9,16.9-12.3,31.2-22.1,43.1c-9.8,11.8-22.2,20.9-37.1,27.3c-14.9,6.3-32.2,9.5-52,9.5c-19.5,0-36.4-2.9-50.7-8.7
		c-14.2-5.8-26-14.3-35.3-25.4c-9.3-11.1-16.2-24.9-20.8-41.4c-4.6-16.5-6.8-35.4-6.8-56.8c0-20.5,2.5-39.1,7.4-55.8
		c5-16.7,12.4-31,22.3-42.7c9.9-11.7,22.3-20.7,37.1-27.1c14.9-6.4,32.2-9.5,52-9.5c19.1,0,35.8,2.9,50,8.6
		c14.2,5.8,26,14.2,35.4,25.2c9.4,11.1,16.4,24.7,21.1,41C1321.2,264.4,1323.5,283.1,1323.5,304z M1054.7,382.8
		c0,9.2-1.7,17.4-5.1,24.7c-3.4,7.3-8.3,13.3-14.6,18.3c-6.3,5-13.8,8.7-22.5,11.3c-8.7,2.6-18.3,3.8-28.7,3.8
		c-6.4,0-12.5-0.5-18.4-1.5c-5.8-1-11-2.3-15.6-3.8c-4.6-1.6-8.6-3.2-11.8-4.8c-3.2-1.7-5.5-3.2-7-4.5c-1.4-1.4-2.5-3.2-3.2-5.6
		c-0.7-2.4-1-5.7-1-9.8c0-2.5,0.1-4.7,0.4-6.4c0.3-1.7,0.6-3.1,1-4.2c0.4-1.1,1-1.9,1.7-2.3c0.8-0.5,1.6-0.7,2.5-0.7
		c1.5,0,3.7,0.9,6.6,2.7c2.9,1.8,6.4,3.8,10.6,5.9c4.2,2.1,9.2,4.1,14.9,5.9c5.8,1.8,12.4,2.7,19.9,2.7c5.6,0,10.7-0.6,15.3-1.8
		c4.5-1.2,8.5-3,11.8-5.3c3.4-2.3,5.9-5.3,7.7-8.9c1.8-3.6,2.7-7.9,2.7-12.8c0-5.1-1.3-9.4-3.9-12.9c-2.6-3.5-6.1-6.6-10.4-9.2
		c-4.3-2.7-9.1-5.1-14.5-7.1c-5.3-2.1-10.9-4.2-16.5-6.5c-5.7-2.3-11.2-4.8-16.7-7.7c-5.4-2.9-10.3-6.4-14.5-10.6
		c-4.3-4.2-7.7-9.1-10.3-14.9c-2.6-5.8-3.9-12.7-3.9-20.7c0-7.1,1.4-13.9,4.1-20.4c2.7-6.5,6.8-12.2,12.3-17.1
		c5.5-4.9,12.4-8.8,20.6-11.8c8.2-2.9,17.8-4.4,28.8-4.4c4.8,0,9.6,0.4,14.4,1.2c4.8,0.8,9.2,1.8,13.1,3c3.9,1.2,7.2,2.5,9.9,3.9
		c2.8,1.4,4.8,2.6,6.2,3.7c1.4,1.1,2.3,2,2.8,2.8c0.5,0.8,0.8,1.7,1,2.7c0.2,1,0.4,2.3,0.6,3.7c0.2,1.5,0.3,3.3,0.3,5.4
		c0,2.3-0.1,4.3-0.3,5.9c-0.2,1.7-0.6,3.1-1,4.1c-0.5,1.1-1,1.9-1.7,2.3c-0.7,0.5-1.4,0.7-2.2,0.7c-1.2,0-2.9-0.8-5.3-2.2
		c-2.3-1.5-5.2-3.1-8.8-4.8c-3.6-1.7-7.8-3.2-12.7-4.7c-4.9-1.5-10.5-2.2-16.7-2.2c-5.7,0-10.6,0.6-14.9,1.9
		c-4.3,1.3-7.8,3.1-10.6,5.4c-2.7,2.3-4.8,5.1-6.2,8.3c-1.4,3.2-2.1,6.7-2.1,10.4c0,5.3,1.3,9.6,4,13.2c2.7,3.5,6.2,6.7,10.4,9.3
		c4.3,2.7,9.2,5.1,14.7,7.2c5.5,2.2,11,4.4,16.7,6.6c5.7,2.3,11.3,4.8,16.9,7.6c5.6,2.8,10.5,6.2,14.8,10.2c4.3,4,7.7,8.8,10.3,14.5
		C1053.4,368.3,1054.7,375,1054.7,382.8z M863.2,323.9c0.4-17.4-3.4-31-11.6-40.9c-8.1-9.9-20.1-14.9-36-14.9
		c-8.2,0-15.3,1.5-21.5,4.6c-6.1,3.1-11.3,7.1-15.4,12.2c-4.1,5.1-7.4,11-9.6,17.8c-2.3,6.8-3.5,13.8-3.8,21.2H863.2z M896.5,333.7
		c0,5.2-1.3,8.9-3.9,11.1c-2.6,2.2-5.6,3.3-8.9,3.3H765.2c0,10,1,19.1,3,27.1c2,8,5.3,14.9,10,20.7c4.7,5.8,10.8,10.2,18.3,13.3
		c7.5,3.1,16.7,4.6,27.5,4.6c8.6,0,16.2-0.7,22.9-2.1c6.7-1.4,12.5-3,17.4-4.7c4.9-1.7,8.9-3.3,12-4.7c3.1-1.4,5.5-2.1,7.1-2.1
		c0.9,0,1.8,0.2,2.5,0.7c0.7,0.5,1.3,1.2,1.7,2.1c0.4,0.9,0.7,2.2,0.9,3.9c0.2,1.7,0.3,3.7,0.3,6.1c0,1.7-0.1,3.2-0.2,4.5
		c-0.1,1.2-0.3,2.4-0.5,3.4c-0.2,1-0.6,1.9-1,2.7c-0.5,0.8-1.1,1.6-1.9,2.3c-0.7,0.8-2.9,1.9-6.5,3.6c-3.6,1.7-8.3,3.3-14,4.9
		c-5.8,1.6-12.4,3-20,4.3c-7.6,1.3-15.6,1.9-24.2,1.9c-14.9,0-27.9-2.1-39-6.2c-11.2-4.2-20.6-10.3-28.2-18.5
		c-7.7-8.2-13.4-18.4-17.3-30.7c-3.9-12.3-5.8-26.6-5.8-43c0-15.5,2-29.5,6-41.8c4-12.4,9.8-22.9,17.4-31.5
		c7.6-8.6,16.7-15.3,27.4-19.9c10.7-4.6,22.7-6.9,35.9-6.9c14.2,0,26.3,2.3,36.2,6.9c10,4.5,18.2,10.7,24.6,18.3
		c6.4,7.7,11.2,16.7,14.2,27.1c3,10.4,4.5,21.4,4.5,33.3V333.7z"/>
	<g id="XMLID_1_">
		<path id="XMLID_14_" class="st1" d="M302,153.5c-87.4,0-158.3,70.9-158.3,158.3h62.2c0-53.1,43-96.1,96.1-96.1
			c53,0,95.9,42.9,96.1,95.8V203.8V186C371.4,165.6,338.1,153.5,302,153.5z"/>
		<g id="XMLID_4_">
			<g>
				<path id="XMLID_133_" class="st2" d="M494.1,119.7h-33.8V203v0.8v108c0,87.4-70.9,158.3-158.3,158.3s-158.3-70.9-158.3-158.3
					S214.5,153.5,302,153.5c36.1,0,69.4,12.1,96.1,32.5v-40.6v-25.8H302c-106.1,0-192.1,86-192.1,192.1
					c0,106.1,86,192.1,192.1,192.1c106.1,0,192.1-86,192.1-192.1c0-40.1-12.3-77.2-33.2-108h33.2V119.7z"/>
				<path id="XMLID_130_" class="st2" d="M302,215.7c-53.1,0-96.1,43-96.1,96.1s43,96.1,96.1,96.1s96.1-43,96.1-96.1h0v-0.3
					C397.9,258.6,354.9,215.7,302,215.7z M302,376.3c-35.6,0-64.5-28.9-64.5-64.5c0-35.6,28.9-64.5,64.5-64.5s64.5,28.9,64.5,64.5
					C366.4,347.4,337.6,376.3,302,376.3z"/>
			</g>
		</g>
		<linearGradient id="XMLID_6_" gradientUnits="userSpaceOnUse" x1="301.96" y1="149.5538" x2="301.96" y2="453.692">
			<stop  offset="0" style="stop-color:#FFF000"/>
			<stop  offset="1" style="stop-color:#F7B400"/>
		</linearGradient>
		<path id="XMLID_3_" class="st3" d="M398,119.7v25.8V186v17.8v107.7v0.3h0c0,53.1-43,96.1-96.1,96.1s-96.1-43-96.1-96.1h-62.2
			c0,87.4,70.9,158.3,158.3,158.3s158.3-70.9,158.3-158.3v-108V203v-83.3H398z"/>
		<linearGradient id="XMLID_7_" gradientUnits="userSpaceOnUse" x1="301.9598" y1="249.2471" x2="301.9598" y2="372.9752">
			<stop  offset="0" style="stop-color:#FFF000"/>
			<stop  offset="1" style="stop-color:#F7B400"/>
		</linearGradient>
		<circle id="XMLID_2_" class="st4" cx="302" cy="311.8" r="64.5"/>
	</g>
</g>
</svg>
